<svg width="24" height="24" xmlns="http://www.w3.org/2000/svg">
 <title/>

 <g>
  <title>background</title>
  <rect fill="none" id="canvas_background" height="402" width="582" y="-1" x="-1"/>
 </g>
 <g>
  <title>Layer 1</title>
  <path fill="#bf0000" id="svg_1" d="m0,7.334l0,8l6.666,0l0,1.332l5.334,0l0,-1.332l12,0l0,-8l-24,0zm6.666,6.664l-1.332,0l0,-4l-1.335,0l0,4l-2.664,0l0,-5.331l5.331,0l0,5.331zm4,0l0,1.336l-2.665,0l0,-6.667l5.334,0l0,5.332l-2.669,0l0,-0.001zm12.001,0l-1.33,0l0,-4l-1.336,0l0,4l-1.335,0l0,-4l-1.33,0l0,4l-2.671,0l0,-5.331l8.002,0l0,5.331zm-12.002,-3.998l1.335,0l0,2.667l-1.335,0l0,-2.667z"/>
 </g>
</svg>